<svg width="209" height="56" viewBox="0 0 209 56" fill="none" xmlns="http://www.w3.org/2000/svg">
<rect width="130.964" height="55.9765" fill="#F03A47"/>
<path d="M15.7798 39.1883V34.9619H21.426C22.4385 34.9619 23.1979 34.6978 23.7042 34.1695C24.2105 33.6412 24.4636 32.8928 24.4636 31.9242C24.4636 30.9557 24.2105 30.2183 23.7042 29.712C23.1979 29.1837 22.4385 28.9196 21.426 28.9196H15.7798V25.6507H21.1618C22.8347 25.6507 24.3206 25.8599 25.6193 26.2781C26.918 26.6743 27.9416 27.3237 28.69 28.2262C29.4384 29.1287 29.8126 30.3504 29.8126 31.8912V32.3535C29.8126 33.7843 29.4824 35.017 28.8221 36.0515C28.1617 37.0641 27.1932 37.8455 25.9165 38.3959C24.6397 38.9241 23.0549 39.1883 21.1618 39.1883H15.7798ZM11.1572 39.1883V14.7217H16.4402V39.1883H11.1572ZM15.7798 28.0611V24.8253H20.5345C21.569 24.8253 22.3174 24.5611 22.7797 24.0328C23.242 23.5045 23.4731 22.8002 23.4731 21.9197C23.4731 20.9952 23.242 20.2687 22.7797 19.7405C22.3174 19.2122 21.569 18.948 20.5345 18.948H15.7798V14.7217H20.2043C22.9778 14.7217 25.102 15.305 26.5768 16.4716C28.0737 17.6383 28.8221 19.3002 28.8221 21.4574V21.9527C28.8221 23.4495 28.4369 24.6492 27.6664 25.5517C26.918 26.4542 25.8944 27.1036 24.5957 27.4998C23.319 27.874 21.8552 28.0611 20.2043 28.0611H15.7798Z" fill="white"/>
<path d="M34.0846 39.0232V14.9198H39.4997V39.0232H34.0846Z" fill="white"/>
<path d="M44.9817 39.0232V14.9198H53.8637L62.9438 34.6318H64.0664L63.406 35.2261V14.9198H68.4909V39.0232H59.5429L50.4628 19.3112H49.3402L50.0005 18.7169V39.0232H44.9817Z" fill="white"/>
<path d="M85.3295 39.6506C83.1723 39.6506 81.2902 39.2984 79.6833 38.594C78.0764 37.8676 76.7447 36.899 75.6881 35.6883C74.6535 34.4777 73.8831 33.1349 73.3768 31.6601C72.8705 30.1853 72.6174 28.7105 72.6174 27.2356V26.5092C72.6174 24.9904 72.8705 23.5046 73.3768 22.0517C73.8831 20.5989 74.6425 19.2782 75.6551 18.0895C76.6896 16.9009 77.9664 15.9543 79.4852 15.2499C81.0261 14.5456 82.798 14.1934 84.8012 14.1934C86.9804 14.1934 88.9065 14.6006 90.5794 15.415C92.2523 16.2075 93.5951 17.3191 94.6076 18.7499C95.6202 20.1587 96.2035 21.7986 96.3576 23.6696H90.9426C90.8105 22.7892 90.4583 22.0187 89.886 21.3584C89.3357 20.698 88.6203 20.1807 87.7398 19.8065C86.8813 19.4323 85.9018 19.2452 84.8012 19.2452C83.7446 19.2452 82.798 19.4323 81.9616 19.8065C81.1471 20.1807 80.4427 20.709 79.8484 21.3914C79.2761 22.0738 78.8358 22.8882 78.5277 23.8347C78.2415 24.7593 78.0984 25.7828 78.0984 26.9054C78.0984 28.0721 78.2525 29.1397 78.5607 30.1082C78.8909 31.0548 79.3641 31.8802 79.9805 32.5846C80.5968 33.267 81.3562 33.7953 82.2588 34.1695C83.1833 34.5437 84.2068 34.7308 85.3295 34.7308C86.8263 34.7308 88.125 34.4226 89.2256 33.8063C90.3262 33.19 91.1187 32.3755 91.603 31.3629L90.9426 35.061V29.3158H95.9284V34.4667C94.8938 36.1396 93.463 37.4273 91.636 38.3298C89.831 39.2103 87.7288 39.6506 85.3295 39.6506ZM84.6361 30.3724V26.4762H97.9095V30.3724H84.6361Z" fill="white"/>
<path d="M101.41 39.0232V14.9198H106.693V39.0232H101.41ZM106.032 39.0232V34.5327H116.565V39.0232H106.032ZM106.032 29.0186V24.5281H115.806V29.0186H106.032ZM106.032 19.4103V14.9198H116.334V19.4103H106.032Z" fill="white"/>
<path d="M142.519 39.1883V34.9619H148.165C149.178 34.9619 149.937 34.6978 150.443 34.1695C150.95 33.6412 151.203 32.8928 151.203 31.9242C151.203 30.9557 150.95 30.2183 150.443 29.712C149.937 29.1837 149.178 28.9196 148.165 28.9196H142.519V25.6507H147.901C149.574 25.6507 151.06 25.8599 152.359 26.2781C153.657 26.6743 154.681 27.3237 155.429 28.2262C156.178 29.1287 156.552 30.3504 156.552 31.8912V32.3535C156.552 33.7843 156.222 35.017 155.561 36.0515C154.901 37.0641 153.932 37.8455 152.656 38.3959C151.379 38.9241 149.794 39.1883 147.901 39.1883H142.519ZM137.896 39.1883V14.7217H143.179V39.1883H137.896ZM142.519 28.0611V24.8253H147.274C148.308 24.8253 149.057 24.5611 149.519 24.0328C149.981 23.5045 150.212 22.8002 150.212 21.9197C150.212 20.9952 149.981 20.2687 149.519 19.7405C149.057 19.2122 148.308 18.948 147.274 18.948H142.519V14.7217H146.944C149.717 14.7217 151.841 15.305 153.316 16.4716C154.813 17.6383 155.561 19.3002 155.561 21.4574V21.9527C155.561 23.4495 155.176 24.6492 154.406 25.5517C153.657 26.4542 152.634 27.1036 151.335 27.4998C150.058 27.874 148.594 28.0611 146.944 28.0611H142.519Z" fill="#F03A47"/>
<path d="M172.185 39.6506C170.006 39.6506 168.102 39.2763 166.473 38.5279C164.866 37.7575 163.535 36.7559 162.478 35.5233C161.421 34.2686 160.629 32.9148 160.101 31.462C159.594 30.0092 159.341 28.6114 159.341 27.2687V26.5422C159.341 25.0454 159.605 23.5706 160.134 22.1178C160.684 20.643 161.498 19.3112 162.577 18.1226C163.656 16.9339 164.998 15.9874 166.605 15.283C168.212 14.5566 170.072 14.1934 172.185 14.1934C174.299 14.1934 176.159 14.5566 177.765 15.283C179.372 15.9874 180.715 16.9339 181.794 18.1226C182.872 19.3112 183.687 20.643 184.237 22.1178C184.787 23.5706 185.063 25.0454 185.063 26.5422V27.2687C185.063 28.6114 184.798 30.0092 184.27 31.462C183.742 32.9148 182.949 34.2686 181.893 35.5233C180.836 36.7559 179.493 37.7575 177.864 38.5279C176.258 39.2763 174.365 39.6506 172.185 39.6506ZM172.185 34.5987C173.33 34.5987 174.354 34.4006 175.256 34.0044C176.181 33.6082 176.962 33.0579 177.6 32.3535C178.261 31.6491 178.756 30.8346 179.086 29.9101C179.416 28.9856 179.581 27.9951 179.581 26.9385C179.581 25.8158 179.405 24.7923 179.053 23.8678C178.723 22.9212 178.228 22.1068 177.567 21.4244C176.929 20.72 176.159 20.1807 175.256 19.8065C174.354 19.4323 173.33 19.2452 172.185 19.2452C171.041 19.2452 170.017 19.4323 169.115 19.8065C168.212 20.1807 167.431 20.72 166.77 21.4244C166.132 22.1068 165.648 22.9212 165.317 23.8678C164.987 24.7923 164.822 25.8158 164.822 26.9385C164.822 27.9951 164.987 28.9856 165.317 29.9101C165.648 30.8346 166.132 31.6491 166.77 32.3535C167.431 33.0579 168.212 33.6082 169.115 34.0044C170.017 34.4006 171.041 34.5987 172.185 34.5987Z" fill="#F03A47"/>
<path d="M185.755 39.0232L193.977 26.179L194.043 26.7404L186.449 14.9198H192.392L197.081 22.448H197.84L202.463 14.9198H208.241L200.614 26.8064L200.515 26.2781L209 39.0232H203.024L197.543 30.5045H196.751L191.534 39.0232H185.755Z" fill="#F03A47"/>
</svg>
