<svg width="583" height="482" viewBox="0 0 583 482" fill="none" xmlns="http://www.w3.org/2000/svg">
<path d="M134.862 427L134.862 404.44L143.886 404.44C146.211 404.44 148.003 404.963 149.262 406.008C150.542 407.032 151.182 408.472 151.182 410.328C151.182 411.565 150.862 412.621 150.222 413.496C149.582 414.371 148.697 415.011 147.566 415.416C148.867 415.757 149.881 416.387 150.606 417.304C151.353 418.221 151.726 419.384 151.726 420.792C151.726 422.797 151.075 424.333 149.774 425.4C148.473 426.467 146.638 427 144.27 427L134.862 427ZM137.422 414.52L143.502 414.52C146.894 414.52 148.59 413.197 148.59 410.552C148.59 407.885 146.894 406.552 143.502 406.552L137.422 406.552L137.422 414.52ZM137.422 424.888L144.014 424.888C147.427 424.888 149.134 423.512 149.134 420.76C149.134 418.008 147.427 416.632 144.014 416.632L137.422 416.632L137.422 424.888ZM163.143 427.288C160.69 427.288 158.748 426.573 157.319 425.144C155.89 423.693 155.175 421.731 155.175 419.256C155.175 417.656 155.495 416.248 156.135 415.032C156.775 413.795 157.65 412.845 158.759 412.184C159.89 411.501 161.191 411.16 162.663 411.16C164.775 411.16 166.428 411.843 167.623 413.208C168.818 414.552 169.415 416.408 169.415 418.776L169.415 419.768L157.703 419.768C157.788 421.539 158.3 422.893 159.239 423.832C160.178 424.749 161.479 425.208 163.143 425.208C164.082 425.208 164.978 425.069 165.831 424.792C166.684 424.493 167.495 424.013 168.263 423.352L169.159 425.176C168.455 425.837 167.559 426.36 166.471 426.744C165.383 427.107 164.274 427.288 163.143 427.288ZM162.727 413.08C161.255 413.08 160.092 413.539 159.239 414.456C158.386 415.373 157.884 416.579 157.735 418.072L167.175 418.072C167.111 416.493 166.695 415.267 165.927 414.392C165.18 413.517 164.114 413.08 162.727 413.08ZM180.046 433.048C178.702 433.048 177.433 432.867 176.238 432.504C175.065 432.163 174.02 431.64 173.102 430.936L173.966 429.048C174.926 429.731 175.876 430.221 176.814 430.52C177.774 430.819 178.809 430.968 179.918 430.968C182.99 430.968 184.526 429.389 184.526 426.232L184.526 423.48C184.078 424.461 183.374 425.24 182.414 425.816C181.476 426.371 180.398 426.648 179.182 426.648C177.753 426.648 176.516 426.317 175.47 425.656C174.425 424.995 173.614 424.088 173.038 422.936C172.484 421.763 172.206 420.408 172.206 418.872C172.206 417.336 172.484 415.992 173.038 414.84C173.614 413.667 174.425 412.76 175.47 412.12C176.516 411.48 177.753 411.16 179.182 411.16C180.398 411.16 181.476 411.437 182.414 411.992C183.374 412.547 184.078 413.304 184.526 414.264L184.526 411.448L187.054 411.448L187.054 425.88C187.054 428.269 186.457 430.061 185.262 431.256C184.089 432.451 182.35 433.048 180.046 433.048ZM179.662 424.536C181.156 424.536 182.34 424.024 183.214 423C184.089 421.976 184.526 420.6 184.526 418.872C184.526 417.144 184.089 415.779 183.214 414.776C182.34 413.752 181.156 413.24 179.662 413.24C178.19 413.24 177.017 413.752 176.142 414.776C175.268 415.779 174.83 417.144 174.83 418.872C174.83 420.6 175.268 421.976 176.142 423C177.017 424.024 178.19 424.536 179.662 424.536ZM191.596 407.576L191.596 404.664L194.796 404.664L194.796 407.576L191.596 407.576ZM191.916 427L191.916 411.448L194.508 411.448L194.508 427L191.916 427ZM199.354 427L199.354 411.448L201.882 411.448L201.882 414.104C202.394 413.123 203.119 412.387 204.058 411.896C204.997 411.405 206.053 411.16 207.226 411.16C210.917 411.16 212.762 413.208 212.762 417.304L212.762 427L210.17 427L210.17 417.464C210.17 416.013 209.882 414.957 209.306 414.296C208.751 413.613 207.855 413.272 206.618 413.272C205.189 413.272 204.047 413.72 203.194 414.616C202.362 415.491 201.946 416.664 201.946 418.136L201.946 427L199.354 427ZM231.552 427L231.552 416.312L222.912 404.44L225.984 404.44L232.928 414.008L239.84 404.44L242.816 404.44L234.176 416.376L234.176 427L231.552 427ZM248.755 427.288C247.241 427.288 245.929 426.957 244.819 426.296C243.71 425.635 242.846 424.707 242.227 423.512C241.63 422.296 241.331 420.867 241.331 419.224C241.331 417.581 241.63 416.163 242.227 414.968C242.846 413.752 243.71 412.813 244.819 412.152C245.929 411.491 247.241 411.16 248.755 411.16C250.249 411.16 251.55 411.491 252.659 412.152C253.79 412.813 254.654 413.752 255.251 414.968C255.87 416.163 256.179 417.581 256.179 419.224C256.179 420.867 255.87 422.296 255.251 423.512C254.654 424.707 253.79 425.635 252.659 426.296C251.55 426.957 250.249 427.288 248.755 427.288ZM248.755 425.208C250.206 425.208 251.369 424.696 252.243 423.672C253.118 422.627 253.555 421.144 253.555 419.224C253.555 417.283 253.118 415.8 252.243 414.776C251.369 413.752 250.206 413.24 248.755 413.24C247.283 413.24 246.11 413.752 245.235 414.776C244.382 415.8 243.955 417.283 243.955 419.224C243.955 421.144 244.382 422.627 245.235 423.672C246.11 424.696 247.283 425.208 248.755 425.208ZM265.577 427.288C261.843 427.288 259.977 425.229 259.977 421.112L259.977 411.448L262.569 411.448L262.569 421.08C262.569 422.467 262.846 423.491 263.401 424.152C263.977 424.813 264.873 425.144 266.089 425.144C267.411 425.144 268.489 424.707 269.321 423.832C270.153 422.936 270.569 421.752 270.569 420.28L270.569 411.448L273.161 411.448L273.161 427L270.633 427L270.633 424.376C270.142 425.315 269.449 426.04 268.553 426.552C267.678 427.043 266.686 427.288 265.577 427.288ZM278.01 427L278.01 411.448L280.538 411.448L280.538 414.232C281.37 412.355 283.077 411.32 285.658 411.128L286.586 411.032L286.778 413.272L285.146 413.464C283.674 413.592 282.554 414.061 281.786 414.872C281.018 415.661 280.634 416.749 280.634 418.136L280.634 427L278.01 427ZM298.05 427L298.05 404.44L312.29 404.44L312.29 406.648L300.61 406.648L300.61 414.456L311.618 414.456L311.618 416.664L300.61 416.664L300.61 424.792L312.29 424.792L312.29 427L298.05 427ZM316.354 432.76L316.354 411.448L318.882 411.448L318.882 414.232C319.351 413.272 320.045 412.525 320.962 411.992C321.901 411.437 322.989 411.16 324.226 411.16C325.613 411.16 326.818 411.491 327.842 412.152C328.887 412.792 329.687 413.72 330.242 414.936C330.818 416.131 331.106 417.56 331.106 419.224C331.106 420.867 330.818 422.296 330.242 423.512C329.687 424.707 328.887 425.635 327.842 426.296C326.818 426.957 325.613 427.288 324.226 427.288C323.031 427.288 321.965 427.021 321.026 426.488C320.087 425.955 319.394 425.219 318.946 424.28L318.946 432.76L316.354 432.76ZM323.682 425.208C325.133 425.208 326.295 424.696 327.17 423.672C328.045 422.627 328.482 421.144 328.482 419.224C328.482 417.283 328.045 415.8 327.17 414.776C326.295 413.752 325.133 413.24 323.682 413.24C322.231 413.24 321.069 413.752 320.194 414.776C319.319 415.8 318.882 417.283 318.882 419.224C318.882 421.144 319.319 422.627 320.194 423.672C321.069 424.696 322.231 425.208 323.682 425.208ZM334.69 407.576L334.69 404.664L337.89 404.664L337.89 407.576L334.69 407.576ZM335.01 427L335.01 411.448L337.602 411.448L337.602 427L335.01 427ZM349.04 427.288C347.482 427.288 346.138 426.957 345.008 426.296C343.877 425.613 343.002 424.664 342.384 423.448C341.786 422.211 341.488 420.771 341.488 419.128C341.488 416.653 342.16 414.712 343.504 413.304C344.848 411.875 346.693 411.16 349.04 411.16C350 411.16 350.949 411.331 351.888 411.672C352.826 412.013 353.605 412.493 354.224 413.112L353.328 415C352.709 414.403 352.026 413.965 351.28 413.688C350.554 413.411 349.861 413.272 349.2 413.272C347.578 413.272 346.33 413.784 345.456 414.808C344.581 415.811 344.144 417.261 344.144 419.16C344.144 421.016 344.581 422.488 345.456 423.576C346.33 424.643 347.578 425.176 349.2 425.176C349.861 425.176 350.554 425.037 351.28 424.76C352.026 424.483 352.709 424.035 353.328 423.416L354.224 425.304C353.605 425.923 352.816 426.413 351.856 426.776C350.917 427.117 349.978 427.288 349.04 427.288ZM365.895 427L365.895 404.44L368.103 404.44L376.775 420.728L385.383 404.44L387.591 404.44L387.591 427L385.159 427L385.159 409.368L377.639 423.512L375.911 423.512L368.295 409.4L368.295 427L365.895 427ZM399.318 427.288C397.803 427.288 396.491 426.957 395.382 426.296C394.273 425.635 393.409 424.707 392.79 423.512C392.193 422.296 391.894 420.867 391.894 419.224C391.894 417.581 392.193 416.163 392.79 414.968C393.409 413.752 394.273 412.813 395.382 412.152C396.491 411.491 397.803 411.16 399.318 411.16C400.811 411.16 402.113 411.491 403.222 412.152C404.353 412.813 405.217 413.752 405.814 414.968C406.433 416.163 406.742 417.581 406.742 419.224C406.742 420.867 406.433 422.296 405.814 423.512C405.217 424.707 404.353 425.635 403.222 426.296C402.113 426.957 400.811 427.288 399.318 427.288ZM399.318 425.208C400.769 425.208 401.931 424.696 402.806 423.672C403.681 422.627 404.118 421.144 404.118 419.224C404.118 417.283 403.681 415.8 402.806 414.776C401.931 413.752 400.769 413.24 399.318 413.24C397.846 413.24 396.673 413.752 395.798 414.776C394.945 415.8 394.518 417.283 394.518 419.224C394.518 421.144 394.945 422.627 395.798 423.672C396.673 424.696 397.846 425.208 399.318 425.208ZM414.992 427L408.304 411.448L411.12 411.448L416.272 424.056L421.488 411.448L424.144 411.448L417.424 427L414.992 427ZM426.565 407.576L426.565 404.664L429.765 404.664L429.765 407.576L426.565 407.576ZM426.885 427L426.885 411.448L429.477 411.448L429.477 427L426.885 427ZM441.331 427.288C438.877 427.288 436.936 426.573 435.507 425.144C434.077 423.693 433.363 421.731 433.363 419.256C433.363 417.656 433.683 416.248 434.323 415.032C434.963 413.795 435.837 412.845 436.947 412.184C438.077 411.501 439.379 411.16 440.851 411.16C442.963 411.16 444.616 411.843 445.811 413.208C447.005 414.552 447.603 416.408 447.603 418.776L447.603 419.768L435.891 419.768C435.976 421.539 436.488 422.893 437.427 423.832C438.365 424.749 439.667 425.208 441.331 425.208C442.269 425.208 443.165 425.069 444.019 424.792C444.872 424.493 445.683 424.013 446.451 423.352L447.347 425.176C446.643 425.837 445.747 426.36 444.659 426.744C443.571 427.107 442.461 427.288 441.331 427.288ZM440.915 413.08C439.443 413.08 438.28 413.539 437.427 414.456C436.573 415.373 436.072 416.579 435.923 418.072L445.363 418.072C445.299 416.493 444.883 415.267 444.115 414.392C443.368 413.517 442.301 413.08 440.915 413.08ZM119.939 471.288C118.169 471.288 116.569 471.064 115.139 470.616C113.71 470.147 112.473 469.475 111.427 468.6L112.355 466.488C113.443 467.32 114.585 467.939 115.779 468.344C116.974 468.749 118.361 468.952 119.939 468.952C121.859 468.952 123.278 468.6 124.195 467.896C125.134 467.171 125.603 466.221 125.603 465.048C125.603 464.109 125.262 463.363 124.579 462.808C123.918 462.253 122.798 461.816 121.219 461.496L117.891 460.824C115.886 460.397 114.382 459.704 113.379 458.744C112.398 457.763 111.907 456.461 111.907 454.84C111.907 453.496 112.249 452.323 112.931 451.32C113.635 450.317 114.606 449.539 115.843 448.984C117.081 448.429 118.51 448.152 120.131 448.152C121.646 448.152 123.054 448.397 124.355 448.888C125.657 449.357 126.755 450.04 127.651 450.936L126.723 452.984C125.763 452.109 124.75 451.48 123.683 451.096C122.617 450.691 121.422 450.488 120.099 450.488C118.414 450.488 117.07 450.883 116.067 451.672C115.065 452.44 114.563 453.464 114.563 454.744C114.563 455.768 114.873 456.579 115.491 457.176C116.131 457.773 117.166 458.211 118.595 458.488L121.923 459.192C124.078 459.64 125.667 460.323 126.691 461.24C127.737 462.136 128.259 463.363 128.259 464.92C128.259 466.179 127.918 467.288 127.235 468.248C126.574 469.208 125.614 469.955 124.355 470.488C123.118 471.021 121.646 471.288 119.939 471.288ZM138.156 471.288C136.322 471.288 134.946 470.808 134.028 469.848C133.111 468.867 132.652 467.459 132.652 465.624L132.652 457.464L129.612 457.464L129.612 455.448L132.652 455.448L132.652 450.68L135.244 450.68L135.244 455.448L140.172 455.448L140.172 457.464L135.244 457.464L135.244 465.368C135.244 466.584 135.5 467.512 136.012 468.152C136.524 468.771 137.356 469.08 138.508 469.08C138.85 469.08 139.191 469.037 139.532 468.952C139.874 468.867 140.183 468.781 140.46 468.696L140.908 470.68C140.631 470.829 140.226 470.968 139.692 471.096C139.159 471.224 138.647 471.288 138.156 471.288ZM143.104 471L143.104 455.448L145.632 455.448L145.632 458.232C146.464 456.355 148.171 455.32 150.752 455.128L151.68 455.032L151.872 457.272L150.24 457.464C148.768 457.592 147.648 458.061 146.88 458.872C146.112 459.661 145.728 460.749 145.728 462.136L145.728 471L143.104 471ZM161.393 471.288C158.94 471.288 156.998 470.573 155.569 469.144C154.14 467.693 153.425 465.731 153.425 463.256C153.425 461.656 153.745 460.248 154.385 459.032C155.025 457.795 155.9 456.845 157.009 456.184C158.14 455.501 159.441 455.16 160.913 455.16C163.025 455.16 164.678 455.843 165.873 457.208C167.068 458.552 167.665 460.408 167.665 462.776L167.665 463.768L155.953 463.768C156.038 465.539 156.55 466.893 157.489 467.832C158.428 468.749 159.729 469.208 161.393 469.208C162.332 469.208 163.228 469.069 164.081 468.792C164.934 468.493 165.745 468.013 166.513 467.352L167.409 469.176C166.705 469.837 165.809 470.36 164.721 470.744C163.633 471.107 162.524 471.288 161.393 471.288ZM160.977 457.08C159.505 457.08 158.342 457.539 157.489 458.456C156.636 459.373 156.134 460.579 155.985 462.072L165.425 462.072C165.361 460.493 164.945 459.267 164.177 458.392C163.43 457.517 162.364 457.08 160.977 457.08ZM176.312 471.288C175.246 471.288 174.286 471.085 173.432 470.68C172.6 470.253 171.939 469.677 171.448 468.952C170.958 468.227 170.712 467.416 170.712 466.52C170.712 465.389 171 464.493 171.576 463.832C172.174 463.171 173.144 462.701 174.488 462.424C175.854 462.125 177.71 461.976 180.056 461.976L181.08 461.976L181.08 460.984C181.08 459.661 180.803 458.712 180.248 458.136C179.715 457.539 178.851 457.24 177.656 457.24C176.718 457.24 175.811 457.379 174.936 457.656C174.062 457.912 173.166 458.339 172.248 458.936L171.352 457.048C172.163 456.472 173.144 456.013 174.296 455.672C175.47 455.331 176.59 455.16 177.656 455.16C179.662 455.16 181.144 455.651 182.104 456.632C183.086 457.613 183.576 459.139 183.576 461.208L183.576 471L181.144 471L181.144 468.312C180.739 469.229 180.11 469.955 179.256 470.488C178.424 471.021 177.443 471.288 176.312 471.288ZM176.728 469.336C178.008 469.336 179.054 468.899 179.864 468.024C180.675 467.128 181.08 465.997 181.08 464.632L181.08 463.672L180.088 463.672C178.36 463.672 176.995 463.757 175.992 463.928C175.011 464.077 174.318 464.355 173.912 464.76C173.528 465.144 173.336 465.677 173.336 466.36C173.336 467.235 173.635 467.949 174.232 468.504C174.851 469.059 175.683 469.336 176.728 469.336ZM188.449 471L188.449 455.448L190.977 455.448L190.977 458.072C191.446 457.133 192.097 456.419 192.929 455.928C193.761 455.416 194.732 455.16 195.841 455.16C198.273 455.16 199.83 456.216 200.513 458.328C200.982 457.347 201.676 456.579 202.593 456.024C203.51 455.448 204.566 455.16 205.761 455.16C209.217 455.16 210.945 457.208 210.945 461.304L210.945 471L208.353 471L208.353 461.432C208.353 460.003 208.097 458.957 207.585 458.296C207.094 457.613 206.273 457.272 205.121 457.272C203.862 457.272 202.86 457.72 202.113 458.616C201.366 459.512 200.993 460.707 200.993 462.2L200.993 471L198.401 471L198.401 461.432C198.401 460.003 198.145 458.957 197.633 458.296C197.142 457.613 196.321 457.272 195.169 457.272C193.889 457.272 192.876 457.72 192.129 458.616C191.404 459.512 191.041 460.707 191.041 462.2L191.041 471L188.449 471ZM215.471 451.576L215.471 448.664L218.671 448.664L218.671 451.576L215.471 451.576ZM215.791 471L215.791 455.448L218.383 455.448L218.383 471L215.791 471ZM223.229 471L223.229 455.448L225.757 455.448L225.757 458.104C226.269 457.123 226.994 456.387 227.933 455.896C228.872 455.405 229.928 455.16 231.101 455.16C234.792 455.16 236.637 457.208 236.637 461.304L236.637 471L234.045 471L234.045 461.464C234.045 460.013 233.757 458.957 233.181 458.296C232.626 457.613 231.73 457.272 230.493 457.272C229.064 457.272 227.922 457.72 227.069 458.616C226.237 459.491 225.821 460.664 225.821 462.136L225.821 471L223.229 471ZM248.296 477.048C246.952 477.048 245.683 476.867 244.488 476.504C243.315 476.163 242.27 475.64 241.352 474.936L242.216 473.048C243.176 473.731 244.126 474.221 245.064 474.52C246.024 474.819 247.059 474.968 248.168 474.968C251.24 474.968 252.776 473.389 252.776 470.232L252.776 467.48C252.328 468.461 251.624 469.24 250.664 469.816C249.726 470.371 248.648 470.648 247.432 470.648C246.003 470.648 244.766 470.317 243.72 469.656C242.675 468.995 241.864 468.088 241.288 466.936C240.734 465.763 240.456 464.408 240.456 462.872C240.456 461.336 240.734 459.992 241.288 458.84C241.864 457.667 242.675 456.76 243.72 456.12C244.766 455.48 246.003 455.16 247.432 455.16C248.648 455.16 249.726 455.437 250.664 455.992C251.624 456.547 252.328 457.304 252.776 458.264L252.776 455.448L255.304 455.448L255.304 469.88C255.304 472.269 254.707 474.061 253.512 475.256C252.339 476.451 250.6 477.048 248.296 477.048ZM247.912 468.536C249.406 468.536 250.59 468.024 251.464 467C252.339 465.976 252.776 464.6 252.776 462.872C252.776 461.144 252.339 459.779 251.464 458.776C250.59 457.752 249.406 457.24 247.912 457.24C246.44 457.24 245.267 457.752 244.392 458.776C243.518 459.779 243.08 461.144 243.08 462.872C243.08 464.6 243.518 465.976 244.392 467C245.267 468.024 246.44 468.536 247.912 468.536ZM265.825 471.224L265.633 469.016L267.553 468.888C268.641 468.803 269.473 468.429 270.049 467.768C270.625 467.085 270.913 466.157 270.913 464.984L270.913 448.44L273.537 448.44L273.537 465.016C273.537 466.872 273.057 468.323 272.097 469.368C271.137 470.392 269.74 470.968 267.905 471.096L265.825 471.224ZM285.224 471.288C283.709 471.288 282.397 470.957 281.288 470.296C280.179 469.635 279.315 468.707 278.696 467.512C278.099 466.296 277.8 464.867 277.8 463.224C277.8 461.581 278.099 460.163 278.696 458.968C279.315 457.752 280.179 456.813 281.288 456.152C282.397 455.491 283.709 455.16 285.224 455.16C286.717 455.16 288.019 455.491 289.128 456.152C290.259 456.813 291.123 457.752 291.72 458.968C292.339 460.163 292.648 461.581 292.648 463.224C292.648 464.867 292.339 466.296 291.72 467.512C291.123 468.707 290.259 469.635 289.128 470.296C288.019 470.957 286.717 471.288 285.224 471.288ZM285.224 469.208C286.675 469.208 287.837 468.696 288.712 467.672C289.587 466.627 290.024 465.144 290.024 463.224C290.024 461.283 289.587 459.8 288.712 458.776C287.837 457.752 286.675 457.24 285.224 457.24C283.752 457.24 282.579 457.752 281.704 458.776C280.851 459.8 280.424 461.283 280.424 463.224C280.424 465.144 280.851 466.627 281.704 467.672C282.579 468.696 283.752 469.208 285.224 469.208ZM302.045 471.288C298.312 471.288 296.445 469.229 296.445 465.112L296.445 455.448L299.037 455.448L299.037 465.08C299.037 466.467 299.315 467.491 299.869 468.152C300.445 468.813 301.341 469.144 302.557 469.144C303.88 469.144 304.957 468.707 305.789 467.832C306.621 466.936 307.037 465.752 307.037 464.28L307.037 455.448L309.629 455.448L309.629 471L307.101 471L307.101 468.376C306.611 469.315 305.917 470.04 305.021 470.552C304.147 471.043 303.155 471.288 302.045 471.288ZM314.479 471L314.479 455.448L317.007 455.448L317.007 458.232C317.839 456.355 319.546 455.32 322.127 455.128L323.055 455.032L323.247 457.272L321.615 457.464C320.143 457.592 319.023 458.061 318.255 458.872C317.487 459.661 317.103 460.749 317.103 462.136L317.103 471L314.479 471ZM325.948 471L325.948 455.448L328.476 455.448L328.476 458.104C328.988 457.123 329.713 456.387 330.652 455.896C331.59 455.405 332.646 455.16 333.82 455.16C337.51 455.16 339.356 457.208 339.356 461.304L339.356 471L336.764 471L336.764 461.464C336.764 460.013 336.476 458.957 335.9 458.296C335.345 457.613 334.449 457.272 333.212 457.272C331.782 457.272 330.641 457.72 329.788 458.616C328.956 459.491 328.54 460.664 328.54 462.136L328.54 471L325.948 471ZM351.143 471.288C348.69 471.288 346.748 470.573 345.319 469.144C343.89 467.693 343.175 465.731 343.175 463.256C343.175 461.656 343.495 460.248 344.135 459.032C344.775 457.795 345.65 456.845 346.759 456.184C347.89 455.501 349.191 455.16 350.663 455.16C352.775 455.16 354.428 455.843 355.623 457.208C356.818 458.552 357.415 460.408 357.415 462.776L357.415 463.768L345.703 463.768C345.788 465.539 346.3 466.893 347.239 467.832C348.178 468.749 349.479 469.208 351.143 469.208C352.082 469.208 352.978 469.069 353.831 468.792C354.684 468.493 355.495 468.013 356.263 467.352L357.159 469.176C356.455 469.837 355.559 470.36 354.471 470.744C353.383 471.107 352.274 471.288 351.143 471.288ZM350.727 457.08C349.255 457.08 348.092 457.539 347.239 458.456C346.386 459.373 345.884 460.579 345.735 462.072L355.175 462.072C355.111 460.493 354.695 459.267 353.927 458.392C353.18 457.517 352.114 457.08 350.727 457.08ZM362.771 476.76L365.427 470.744L358.867 455.448L361.683 455.448L366.835 468.056L372.019 455.448L374.739 455.448L365.491 476.76L362.771 476.76ZM385.987 471L385.987 448.44L388.035 448.44L401.635 466.584L401.635 448.44L404.067 448.44L404.067 471L402.083 471L388.451 452.792L388.451 471L385.987 471ZM415.787 471.288C414.272 471.288 412.96 470.957 411.851 470.296C410.741 469.635 409.877 468.707 409.259 467.512C408.661 466.296 408.363 464.867 408.363 463.224C408.363 461.581 408.661 460.163 409.259 458.968C409.877 457.752 410.741 456.813 411.851 456.152C412.96 455.491 414.272 455.16 415.787 455.16C417.28 455.16 418.581 455.491 419.691 456.152C420.821 456.813 421.685 457.752 422.283 458.968C422.901 460.163 423.211 461.581 423.211 463.224C423.211 464.867 422.901 466.296 422.283 467.512C421.685 468.707 420.821 469.635 419.691 470.296C418.581 470.957 417.28 471.288 415.787 471.288ZM415.787 469.208C417.237 469.208 418.4 468.696 419.275 467.672C420.149 466.627 420.587 465.144 420.587 463.224C420.587 461.283 420.149 459.8 419.275 458.776C418.4 457.752 417.237 457.24 415.787 457.24C414.315 457.24 413.141 457.752 412.267 458.776C411.413 459.8 410.987 461.283 410.987 463.224C410.987 465.144 411.413 466.627 412.267 467.672C413.141 468.696 414.315 469.208 415.787 469.208ZM431.013 471L425.221 455.448L427.941 455.448L432.325 467.96L436.869 455.448L439.077 455.448L443.557 467.992L448.005 455.448L450.597 455.448L444.773 471L442.309 471L437.925 458.936L433.509 471L431.013 471ZM454.207 465.112L453.407 448.44L456.607 448.44L455.807 465.112L454.207 465.112ZM453.375 471L453.375 467.736L456.639 467.736L456.639 471L453.375 471ZM461.329 457.304L460.657 448.44L463.697 448.44L463.089 457.304L461.329 457.304ZM466.801 457.304L466.129 448.44L469.169 448.44L468.561 457.304L466.801 457.304Z" fill="white"/>
<path d="M126.627 127.18L122.757 99.55L141.117 99.55L137.337 127.18L126.627 127.18ZM148.857 127.18L144.987 99.55L163.347 99.55L159.567 127.18L148.857 127.18ZM171.955 163L171.955 99.55L188.515 99.55L188.515 149.23L216.775 149.23L216.775 163L171.955 163ZM223.072 111.07L223.072 96.58L239.902 96.58L239.902 111.07L223.072 111.07ZM223.522 163L223.522 118.72L239.542 118.72L239.542 163L223.522 163ZM270.794 180.19C266.354 180.19 262.184 179.77 258.284 178.93C254.444 178.09 251.144 176.71 248.384 174.79L252.524 163.99C254.804 165.37 257.504 166.45 260.624 167.23C263.804 168.01 266.684 168.4 269.264 168.4C272.924 168.4 275.654 167.62 277.454 166.06C279.314 164.56 280.244 162.19 280.244 158.95L280.244 154.81C278.984 156.97 277.094 158.68 274.574 159.94C272.054 161.2 269.354 161.83 266.474 161.83C262.514 161.83 259.064 160.93 256.124 159.13C253.184 157.27 250.874 154.69 249.194 151.39C247.574 148.09 246.764 144.22 246.764 139.78C246.764 135.34 247.574 131.47 249.194 128.17C250.874 124.87 253.184 122.32 256.124 120.52C259.064 118.66 262.514 117.73 266.474 117.73C269.474 117.73 272.204 118.39 274.664 119.71C277.184 120.97 279.014 122.65 280.154 124.75L280.154 118.72L295.814 118.72L295.814 157.06C295.814 164.8 293.654 170.59 289.334 174.43C285.014 178.27 278.834 180.19 270.794 180.19ZM271.424 150.04C274.064 150.04 276.164 149.14 277.724 147.34C279.284 145.54 280.064 143.02 280.064 139.78C280.064 136.54 279.284 134.02 277.724 132.22C276.164 130.42 274.064 129.52 271.424 129.52C268.844 129.52 266.774 130.42 265.214 132.22C263.654 134.02 262.874 136.54 262.874 139.78C262.874 143.02 263.654 145.54 265.214 147.34C266.774 149.14 268.844 150.04 271.424 150.04ZM305.172 163L305.172 99.55L321.192 99.55L321.192 124.21C324.372 119.89 328.992 117.73 335.052 117.73C340.332 117.73 344.232 119.29 346.752 122.41C349.332 125.53 350.622 130.33 350.622 136.81L350.622 163L334.602 163L334.602 137.44C334.602 134.74 334.122 132.82 333.162 131.68C332.262 130.54 330.912 129.97 329.112 129.97C326.712 129.97 324.792 130.75 323.352 132.31C321.912 133.81 321.192 135.85 321.192 138.43L321.192 163L305.172 163ZM382.972 163.99C376.252 163.99 371.272 162.43 368.032 159.31C364.792 156.19 363.172 151.48 363.172 145.18L363.172 130.51L354.892 130.51L354.892 118.72L363.172 118.72L363.172 105.85L379.192 105.85L379.192 118.72L391.792 118.72L391.792 130.51L379.192 130.51L379.192 144.64C379.192 148.96 381.382 151.12 385.762 151.12C386.482 151.12 387.262 151.06 388.102 150.94C389.002 150.76 389.992 150.52 391.072 150.22L393.232 161.74C391.852 162.46 390.232 163 388.372 163.36C386.512 163.78 384.712 163.99 382.972 163.99ZM415.713 163.99C411.633 163.99 407.853 163.57 404.373 162.73C400.953 161.89 398.043 160.72 395.643 159.22L399.333 148.87C401.553 150.13 404.133 151.18 407.073 152.02C410.013 152.8 412.923 153.19 415.803 153.19C418.023 153.19 419.613 152.89 420.573 152.29C421.533 151.63 422.013 150.79 422.013 149.77C422.013 148.87 421.683 148.21 421.023 147.79C420.423 147.31 419.553 146.95 418.413 146.71L408.423 145.09C404.703 144.49 401.823 143.14 399.783 141.04C397.743 138.94 396.723 136.21 396.723 132.85C396.723 129.73 397.593 127.06 399.333 124.84C401.073 122.56 403.503 120.82 406.623 119.62C409.743 118.36 413.313 117.73 417.333 117.73C420.513 117.73 423.663 118.12 426.783 118.9C429.903 119.62 432.633 120.82 434.973 122.5L431.013 132.67C429.273 131.47 427.113 130.48 424.533 129.7C421.953 128.86 419.643 128.44 417.603 128.44C415.143 128.44 413.403 128.8 412.383 129.52C411.363 130.18 410.853 130.99 410.853 131.95C410.853 133.57 411.963 134.56 414.183 134.92L424.173 136.63C428.013 137.23 430.953 138.55 432.993 140.59C435.093 142.57 436.143 145.27 436.143 148.69C436.143 153.55 434.283 157.33 430.563 160.03C426.843 162.67 421.893 163.99 415.713 163.99ZM449.032 176.95L443.002 172.18C446.242 168.94 448.252 165.88 449.032 163L441.472 163L441.472 146.62L458.122 146.62L458.122 156.97C458.122 160.75 457.432 164.17 456.052 167.23C454.732 170.35 452.392 173.59 449.032 176.95ZM150.47 253.99C143.45 253.99 137.42 252.64 132.38 249.94C127.34 247.24 123.47 243.43 120.77 238.51C118.13 233.59 116.81 227.83 116.81 221.23C116.81 214.63 118.13 208.9 120.77 204.04C123.47 199.12 127.34 195.31 132.38 192.61C137.42 189.91 143.45 188.56 150.47 188.56C154.67 188.56 158.72 189.22 162.62 190.54C166.52 191.8 169.67 193.48 172.07 195.58L167.12 208.63C164.48 206.71 161.84 205.3 159.2 204.4C156.56 203.44 153.86 202.96 151.1 202.96C145.52 202.96 141.32 204.55 138.5 207.73C135.68 210.85 134.27 215.35 134.27 221.23C134.27 227.17 135.68 231.73 138.5 234.91C141.32 238.03 145.52 239.59 151.1 239.59C153.86 239.59 156.56 239.14 159.2 238.24C161.84 237.28 164.48 235.84 167.12 233.92L172.07 246.97C169.67 249.07 166.52 250.78 162.62 252.1C158.72 253.36 154.67 253.99 150.47 253.99ZM192.857 253.99C189.437 253.99 186.407 253.36 183.767 252.1C181.187 250.84 179.147 249.13 177.647 246.97C176.207 244.75 175.487 242.23 175.487 239.41C175.487 236.23 176.327 233.71 178.007 231.85C179.687 229.93 182.387 228.58 186.107 227.8C189.827 226.96 194.777 226.54 200.957 226.54L204.377 226.54L204.377 225.28C204.377 223.12 203.807 221.59 202.667 220.69C201.587 219.79 199.697 219.34 196.997 219.34C194.717 219.34 192.197 219.7 189.437 220.42C186.677 221.14 183.977 222.25 181.337 223.75L177.287 213.22C178.787 212.14 180.707 211.18 183.047 210.34C185.387 209.5 187.847 208.87 190.427 208.45C193.007 207.97 195.437 207.73 197.717 207.73C205.097 207.73 210.557 209.32 214.097 212.5C217.697 215.68 219.497 220.69 219.497 227.53L219.497 253L204.557 253L204.557 246.7C203.777 248.98 202.367 250.78 200.327 252.1C198.287 253.36 195.797 253.99 192.857 253.99ZM196.457 243.55C198.677 243.55 200.537 242.83 202.037 241.39C203.597 239.95 204.377 238.06 204.377 235.72L204.377 234.1L200.957 234.1C197.417 234.1 194.807 234.49 193.127 235.27C191.507 235.99 190.697 237.16 190.697 238.78C190.697 240.16 191.177 241.3 192.137 242.2C193.157 243.1 194.597 243.55 196.457 243.55ZM228.799 253L228.799 208.72L244.369 208.72L244.369 214.66C245.749 212.56 247.579 210.88 249.859 209.62C252.199 208.36 254.869 207.73 257.869 207.73C260.869 207.73 263.449 208.39 265.609 209.71C267.829 211.03 269.509 213.07 270.649 215.83C272.149 213.25 274.189 211.27 276.769 209.89C279.349 208.45 282.199 207.73 285.319 207.73C290.479 207.73 294.289 209.29 296.749 212.41C299.269 215.47 300.529 220.27 300.529 226.81L300.529 253L284.509 253L284.509 227.26C284.509 224.68 284.119 222.82 283.339 221.68C282.559 220.54 281.269 219.97 279.469 219.97C277.249 219.97 275.539 220.75 274.339 222.31C273.199 223.87 272.629 226.09 272.629 228.97L272.629 253L256.609 253L256.609 227.26C256.609 224.68 256.219 222.82 255.439 221.68C254.659 220.54 253.369 219.97 251.569 219.97C249.409 219.97 247.729 220.75 246.529 222.31C245.389 223.87 244.819 226.09 244.819 228.97L244.819 253L228.799 253ZM333.95 253.99C328.55 253.99 323.87 253.06 319.91 251.2C316.01 249.28 313.01 246.58 310.91 243.1C308.81 239.62 307.76 235.51 307.76 230.77C307.76 226.27 308.75 222.28 310.73 218.8C312.77 215.32 315.53 212.62 319.01 210.7C322.55 208.72 326.57 207.73 331.07 207.73C335.51 207.73 339.35 208.66 342.59 210.52C345.89 212.38 348.41 215.05 350.15 218.53C351.95 221.95 352.85 225.97 352.85 230.59L352.85 234.1L323.06 234.1C323.6 236.98 324.8 239.05 326.66 240.31C328.52 241.57 331.1 242.2 334.4 242.2C336.68 242.2 339.05 241.87 341.51 241.21C344.03 240.49 346.25 239.47 348.17 238.15L352.13 248.68C349.85 250.3 347.06 251.59 343.76 252.55C340.46 253.51 337.19 253.99 333.95 253.99ZM331.79 218.08C329.39 218.08 327.41 218.8 325.85 220.24C324.35 221.68 323.39 223.78 322.97 226.54L339.71 226.54C339.53 223.72 338.75 221.62 337.37 220.24C336.05 218.8 334.19 218.08 331.79 218.08ZM359.752 253L359.752 208.72L375.322 208.72L375.322 216.19C377.362 211.09 381.772 208.3 388.552 207.82L392.962 207.46L393.862 220.96L385.132 221.77C381.952 222.07 379.642 222.97 378.202 224.47C376.762 225.91 376.042 228.07 376.042 230.95L376.042 253L359.752 253ZM413.726 253.99C410.306 253.99 407.276 253.36 404.636 252.1C402.056 250.84 400.016 249.13 398.516 246.97C397.076 244.75 396.356 242.23 396.356 239.41C396.356 236.23 397.196 233.71 398.876 231.85C400.556 229.93 403.256 228.58 406.976 227.8C410.696 226.96 415.646 226.54 421.826 226.54L425.246 226.54L425.246 225.28C425.246 223.12 424.676 221.59 423.536 220.69C422.456 219.79 420.566 219.34 417.866 219.34C415.586 219.34 413.066 219.7 410.306 220.42C407.546 221.14 404.846 222.25 402.206 223.75L398.156 213.22C399.656 212.14 401.576 211.18 403.916 210.34C406.256 209.5 408.716 208.87 411.296 208.45C413.876 207.97 416.306 207.73 418.586 207.73C425.966 207.73 431.426 209.32 434.966 212.5C438.566 215.68 440.366 220.69 440.366 227.53L440.366 253L425.426 253L425.426 246.7C424.646 248.98 423.236 250.78 421.196 252.1C419.156 253.36 416.666 253.99 413.726 253.99ZM417.326 243.55C419.546 243.55 421.406 242.83 422.906 241.39C424.466 239.95 425.246 238.06 425.246 235.72L425.246 234.1L421.826 234.1C418.286 234.1 415.676 234.49 413.996 235.27C412.376 235.99 411.566 237.16 411.566 238.78C411.566 240.16 412.046 241.3 413.006 242.2C414.026 243.1 415.466 243.55 417.326 243.55ZM456.239 266.95L450.209 262.18C453.449 258.94 455.459 255.88 456.239 253L448.679 253L448.679 236.62L465.329 236.62L465.329 246.97C465.329 250.75 464.639 254.17 463.259 257.23C461.939 260.35 459.599 263.59 456.239 266.95ZM451.712 309.97L445.682 305.11C448.922 301.87 450.932 298.81 451.712 295.93L444.152 295.93L444.152 279.55L460.802 279.55L460.802 289.9C460.802 293.68 460.112 297.13 458.732 300.25C457.412 303.37 455.072 306.61 451.712 309.97ZM472.412 309.97L466.382 305.11C469.622 301.87 471.632 298.81 472.412 295.93L464.852 295.93L464.852 279.55L481.502 279.55L481.502 289.9C481.502 293.68 480.812 297.13 479.432 300.25C478.112 303.37 475.772 306.61 472.412 309.97Z" fill="#F03A47"/>
<path d="M125.882 343.99C120.902 343.99 116.132 343.39 111.572 342.19C107.012 340.93 103.262 339.28 100.322 337.24L104.912 324.37C107.672 326.23 110.912 327.7 114.632 328.78C118.352 329.86 122.102 330.4 125.882 330.4C129.842 330.4 132.602 329.89 134.162 328.87C135.782 327.79 136.592 326.47 136.592 324.91C136.592 323.53 136.022 322.42 134.882 321.58C133.802 320.74 131.852 320.02 129.032 319.42L118.502 317.17C107.102 314.71 101.402 308.74 101.402 299.26C101.402 295.12 102.512 291.49 104.732 288.37C107.012 285.25 110.162 282.85 114.182 281.17C118.202 279.43 122.882 278.56 128.222 278.56C132.602 278.56 136.742 279.19 140.642 280.45C144.602 281.65 147.812 283.3 150.272 285.4L145.682 297.46C143.402 295.78 140.762 294.49 137.762 293.59C134.762 292.63 131.522 292.15 128.042 292.15C124.682 292.15 122.102 292.75 120.302 293.95C118.502 295.09 117.602 296.59 117.602 298.45C117.602 299.77 118.142 300.85 119.222 301.69C120.302 302.53 122.222 303.25 124.982 303.85L135.422 306.1C147.002 308.56 152.792 314.38 152.792 323.56C152.792 327.7 151.682 331.3 149.462 334.36C147.242 337.42 144.122 339.79 140.102 341.47C136.082 343.15 131.342 343.99 125.882 343.99ZM159.395 291.07L159.395 276.58L176.225 276.58L176.225 291.07L159.395 291.07ZM159.845 343L159.845 298.72L175.865 298.72L175.865 343L159.845 343ZM207.118 360.19C202.678 360.19 198.508 359.77 194.608 358.93C190.768 358.09 187.468 356.71 184.708 354.79L188.848 343.99C191.128 345.37 193.828 346.45 196.948 347.23C200.128 348.01 203.008 348.4 205.588 348.4C209.248 348.4 211.978 347.62 213.778 346.06C215.638 344.56 216.568 342.19 216.568 338.95L216.568 334.81C215.308 336.97 213.418 338.68 210.898 339.94C208.378 341.2 205.678 341.83 202.798 341.83C198.838 341.83 195.388 340.93 192.448 339.13C189.508 337.27 187.198 334.69 185.518 331.39C183.898 328.09 183.088 324.22 183.088 319.78C183.088 315.34 183.898 311.47 185.518 308.17C187.198 304.87 189.508 302.32 192.448 300.52C195.388 298.66 198.838 297.73 202.798 297.73C205.798 297.73 208.528 298.39 210.988 299.71C213.508 300.97 215.338 302.65 216.478 304.75L216.478 298.72L232.138 298.72L232.138 337.06C232.138 344.8 229.978 350.59 225.658 354.43C221.338 358.27 215.158 360.19 207.118 360.19ZM207.748 330.04C210.388 330.04 212.488 329.14 214.048 327.34C215.608 325.54 216.388 323.02 216.388 319.78C216.388 316.54 215.608 314.02 214.048 312.22C212.488 310.42 210.388 309.52 207.748 309.52C205.168 309.52 203.098 310.42 201.538 312.22C199.978 314.02 199.198 316.54 199.198 319.78C199.198 323.02 199.978 325.54 201.538 327.34C203.098 329.14 205.168 330.04 207.748 330.04ZM241.495 343L241.495 298.72L257.065 298.72L257.065 304.75C258.625 302.47 260.635 300.73 263.095 299.53C265.555 298.33 268.315 297.73 271.375 297.73C276.655 297.73 280.555 299.29 283.075 302.41C285.655 305.53 286.945 310.33 286.945 316.81L286.945 343L270.925 343L270.925 317.44C270.925 314.74 270.445 312.82 269.485 311.68C268.585 310.54 267.235 309.97 265.435 309.97C263.035 309.97 261.115 310.75 259.675 312.31C258.235 313.81 257.515 315.85 257.515 318.43L257.515 343L241.495 343ZM350.987 343.99C341.747 343.99 334.667 341.65 329.747 336.97C324.887 332.29 322.457 325.3 322.457 316L322.457 279.55L339.017 279.55L339.017 316.18C339.017 320.8 340.037 324.28 342.077 326.62C344.117 328.96 347.087 330.13 350.987 330.13C354.827 330.13 357.767 328.96 359.807 326.62C361.847 324.28 362.867 320.8 362.867 316.18L362.867 279.55L379.157 279.55L379.157 316C379.157 325.3 376.757 332.29 371.957 336.97C367.217 341.65 360.227 343.99 350.987 343.99ZM389.152 359.2L389.152 298.72L404.722 298.72L404.722 304.75C405.922 302.59 407.752 300.88 410.212 299.62C412.672 298.36 415.372 297.73 418.312 297.73C422.092 297.73 425.422 298.66 428.302 300.52C431.242 302.38 433.522 305.05 435.142 308.53C436.822 311.95 437.662 316.06 437.662 320.86C437.662 325.6 436.852 329.71 435.232 333.19C433.612 336.67 431.332 339.34 428.392 341.2C425.512 343.06 422.152 343.99 418.312 343.99C415.552 343.99 412.972 343.42 410.572 342.28C408.232 341.14 406.432 339.61 405.172 337.69L405.172 359.2L389.152 359.2ZM413.272 332.2C415.672 332.2 417.652 331.3 419.212 329.5C420.772 327.7 421.552 324.82 421.552 320.86C421.552 316.84 420.772 313.96 419.212 312.22C417.652 310.42 415.672 309.52 413.272 309.52C410.812 309.52 408.802 310.42 407.242 312.22C405.682 313.96 404.902 316.84 404.902 320.86C404.902 324.82 405.682 327.7 407.242 329.5C408.802 331.3 410.812 332.2 413.272 332.2Z" fill="white"/>
</svg>
