<svg width="130" height="130" viewBox="0 0 130 130" fill="none" xmlns="http://www.w3.org/2000/svg">
<circle cx="65" cy="65" r="65" fill="url(#paint0_linear_959_7562)" fill-opacity="0.19"/>
<path fill-rule="evenodd" clip-rule="evenodd" d="M95.0133 49.9634C95.7633 50.7134 96.1383 51.6242 96.1383 52.6956C96.1383 53.767 95.7633 54.6777 95.0133 55.4277L65.9241 84.5169L60.4598 89.9812C59.7098 90.7312 58.7991 91.1062 57.7277 91.1062C56.6562 91.1062 55.7455 90.7312 54.9955 89.9812L49.5312 84.5169L34.9866 69.9723C34.2366 69.2223 33.8616 68.3116 33.8616 67.2401C33.8616 66.1687 34.2366 65.258 34.9866 64.508L40.4509 59.0437C41.2009 58.2937 42.1116 57.9187 43.183 57.9187C44.2544 57.9187 45.1651 58.2937 45.9151 59.0437L57.7277 70.8964L84.0847 44.499C84.8347 43.749 85.7454 43.374 86.8168 43.374C87.8883 43.374 88.799 43.749 89.549 44.499L95.0133 49.9634Z" fill="#45C62F"/>
<defs>
<linearGradient id="paint0_linear_959_7562" x1="-3.82353" y1="-8.89057" x2="199.7" y2="88.4901" gradientUnits="userSpaceOnUse">
<stop stop-color="white"/>
<stop offset="0.575687" stop-color="#EAEAEA" stop-opacity="0.424313"/>
<stop offset="1" stop-color="#DFD6D6" stop-opacity="0"/>
</linearGradient>
</defs>
</svg>
