<svg width="524" height="155" viewBox="0 0 524 155" fill="none" xmlns="http://www.w3.org/2000/svg">
<path d="M3.7 23.752L0.432 0.419997H15.936L12.744 23.752H3.7ZM22.472 23.752L19.204 0.419997H34.708L31.516 23.752H22.472ZM65.6893 54.836C57.8866 54.836 51.9079 52.86 47.7533 48.908C43.6493 44.956 41.5973 39.0533 41.5973 31.2V0.419997H55.5813V31.352C55.5813 35.2533 56.4426 38.192 58.1653 40.168C59.8879 42.144 62.3959 43.132 65.6893 43.132C68.9319 43.132 71.4146 42.144 73.1373 40.168C74.8599 38.192 75.7213 35.2533 75.7213 31.352V0.419997H89.4773V31.2C89.4773 39.0533 87.4506 44.956 83.3973 48.908C79.3946 52.86 73.4919 54.836 65.6893 54.836ZM97.9168 54V16.608H111.065V21.7C112.382 19.7747 114.08 18.3053 116.157 17.292C118.234 16.2787 120.565 15.772 123.149 15.772C127.608 15.772 130.901 17.0893 133.029 19.724C135.208 22.3587 136.297 26.412 136.297 31.884V54H122.769V32.416C122.769 30.136 122.364 28.5147 121.553 27.552C120.793 26.5893 119.653 26.108 118.133 26.108C116.106 26.108 114.485 26.7667 113.269 28.084C112.053 29.3507 111.445 31.0733 111.445 33.252V54H97.9168ZM158.751 54.836C153.583 54.836 149.833 53.544 147.503 50.96C145.172 48.3253 144.007 44.3733 144.007 39.104V0.419997H157.535V38.648C157.535 42.1947 159.156 43.968 162.399 43.968C162.905 43.968 163.412 43.9427 163.919 43.892C164.476 43.8413 165.008 43.7653 165.515 43.664L165.363 54C163.336 54.5573 161.132 54.836 158.751 54.836ZM190.425 54.836C185.865 54.836 181.913 54.0507 178.569 52.48C175.276 50.8587 172.743 48.5787 170.969 45.64C169.196 42.7013 168.309 39.2307 168.309 35.228C168.309 31.428 169.145 28.0587 170.817 25.12C172.54 22.1813 174.871 19.9013 177.809 18.28C180.799 16.608 184.193 15.772 187.993 15.772C191.743 15.772 194.985 16.5573 197.721 18.128C200.508 19.6987 202.636 21.9533 204.105 24.892C205.625 27.78 206.385 31.1747 206.385 35.076V38.04H181.229C181.685 40.472 182.699 42.22 184.269 43.284C185.84 44.348 188.019 44.88 190.805 44.88C192.731 44.88 194.732 44.6013 196.809 44.044C198.937 43.436 200.812 42.5747 202.433 41.46L205.777 50.352C203.852 51.72 201.496 52.8093 198.709 53.62C195.923 54.4307 193.161 54.836 190.425 54.836ZM188.601 24.512C186.575 24.512 184.903 25.12 183.585 26.336C182.319 27.552 181.508 29.3253 181.153 31.656H195.289C195.137 29.2747 194.479 27.5013 193.313 26.336C192.199 25.12 190.628 24.512 188.601 24.512ZM225.21 54.836C222.322 54.836 219.763 54.304 217.534 53.24C215.355 52.176 213.632 50.732 212.366 48.908C211.15 47.0333 210.542 44.9053 210.542 42.524C210.542 39.8387 211.251 37.7107 212.67 36.14C214.088 34.5187 216.368 33.3787 219.51 32.72C222.651 32.0107 226.831 31.656 232.05 31.656H234.938V30.592C234.938 28.768 234.456 27.476 233.494 26.716C232.582 25.956 230.986 25.576 228.706 25.576C226.78 25.576 224.652 25.88 222.322 26.488C219.991 27.096 217.711 28.0333 215.482 29.3L212.062 20.408C213.328 19.496 214.95 18.6853 216.926 17.976C218.902 17.2667 220.979 16.7347 223.158 16.38C225.336 15.9747 227.388 15.772 229.314 15.772C235.546 15.772 240.156 17.1147 243.146 19.8C246.186 22.4853 247.706 26.716 247.706 32.492V54H235.09V48.68C234.431 50.6053 233.24 52.1253 231.518 53.24C229.795 54.304 227.692 54.836 225.21 54.836ZM228.25 46.02C230.124 46.02 231.695 45.412 232.962 44.196C234.279 42.98 234.938 41.384 234.938 39.408V38.04H232.05C229.06 38.04 226.856 38.3693 225.438 39.028C224.07 39.636 223.386 40.624 223.386 41.992C223.386 43.1573 223.791 44.12 224.602 44.88C225.463 45.64 226.679 46.02 228.25 46.02ZM270.305 54.836C266.86 54.836 263.668 54.4813 260.729 53.772C257.841 53.0627 255.384 52.0747 253.357 50.808L256.473 42.068C258.348 43.132 260.526 44.0187 263.009 44.728C265.492 45.3867 267.949 45.716 270.381 45.716C272.256 45.716 273.598 45.4627 274.409 44.956C275.22 44.3987 275.625 43.6893 275.625 42.828C275.625 42.068 275.346 41.5107 274.789 41.156C274.282 40.7507 273.548 40.4467 272.585 40.244L264.149 38.876C261.008 38.3693 258.576 37.2293 256.853 35.456C255.13 33.6827 254.269 31.3773 254.269 28.54C254.269 25.9053 255.004 23.6507 256.473 21.776C257.942 19.8507 259.994 18.3813 262.629 17.368C265.264 16.304 268.278 15.772 271.673 15.772C274.358 15.772 277.018 16.1013 279.653 16.76C282.288 17.368 284.593 18.3813 286.569 19.8L283.225 28.388C281.756 27.3747 279.932 26.5387 277.753 25.88C275.574 25.1707 273.624 24.816 271.901 24.816C269.824 24.816 268.354 25.12 267.493 25.728C266.632 26.2853 266.201 26.9693 266.201 27.78C266.201 29.148 267.138 29.984 269.013 30.288L277.449 31.732C280.692 32.2387 283.174 33.3533 284.897 35.076C286.67 36.748 287.557 39.028 287.557 41.916C287.557 46.02 285.986 49.212 282.845 51.492C279.704 53.7213 275.524 54.836 270.305 54.836ZM293.112 54V0.419997H306.64V21.244C309.325 17.596 313.227 15.772 318.344 15.772C322.803 15.772 326.096 17.0893 328.224 19.724C330.403 22.3587 331.492 26.412 331.492 31.884V54H317.964V32.416C317.964 30.136 317.559 28.5147 316.748 27.552C315.988 26.5893 314.848 26.108 313.328 26.108C311.301 26.108 309.68 26.7667 308.464 28.084C307.248 29.3507 306.64 31.0733 306.64 33.252V54H293.112ZM374.476 54V30.288L353.88 0.419997H369.916L381.696 17.824L393.476 0.419997H409.056L388.46 30.288V54H374.476ZM422.251 54.836C418.096 54.836 414.474 54.0507 411.383 52.48C408.292 50.9093 405.886 48.6547 404.163 45.716C402.44 42.7773 401.579 39.3067 401.579 35.304C401.579 31.2507 402.44 27.78 404.163 24.892C405.886 21.9533 408.292 19.6987 411.383 18.128C414.474 16.5573 418.096 15.772 422.251 15.772C426.406 15.772 430.028 16.5573 433.119 18.128C436.21 19.6987 438.591 21.9533 440.263 24.892C441.986 27.78 442.847 31.2507 442.847 35.304C442.847 39.3067 441.986 42.7773 440.263 45.716C438.591 48.6547 436.21 50.9093 433.119 52.48C430.028 54.0507 426.406 54.836 422.251 54.836ZM422.251 44.88C424.278 44.88 425.95 44.12 427.267 42.6C428.584 41.08 429.243 38.648 429.243 35.304C429.243 31.9093 428.584 29.4773 427.267 28.008C425.95 26.488 424.278 25.728 422.251 25.728C420.174 25.728 418.476 26.488 417.159 28.008C415.842 29.4773 415.183 31.9093 415.183 35.304C415.183 38.648 415.842 41.08 417.159 42.6C418.476 44.12 420.174 44.88 422.251 44.88ZM463.03 54.836C458.166 54.836 454.568 53.5187 452.238 50.884C449.958 48.1987 448.818 44.12 448.818 38.648V16.608H462.346V39.028C462.346 42.676 463.916 44.5 467.058 44.5C468.882 44.5 470.376 43.8413 471.542 42.524C472.707 41.2067 473.29 39.4587 473.29 37.28V16.608H486.818V54H473.594V49.364C471.162 53.012 467.64 54.836 463.03 54.836ZM494.69 54V16.608H507.838V22.916C509.561 18.6093 513.285 16.2533 519.01 15.848L522.734 15.544L523.494 26.944L516.122 27.628C513.437 27.8813 511.486 28.6413 510.27 29.908C509.054 31.124 508.446 32.948 508.446 35.38V54H494.69ZM3.016 140V86.42H14.644L31.744 117.124L48.844 86.42H60.168V140H47.552V110.892L35.316 132.096H27.716L15.632 111.196V140H3.016ZM88.044 140.836C83.8893 140.836 80.2666 140.051 77.176 138.48C74.0853 136.909 71.6786 134.655 69.956 131.716C68.2333 128.777 67.372 125.307 67.372 121.304C67.372 117.251 68.2333 113.78 69.956 110.892C71.6786 107.953 74.0853 105.699 77.176 104.128C80.2666 102.557 83.8893 101.772 88.044 101.772C92.1986 101.772 95.8213 102.557 98.912 104.128C102.003 105.699 104.384 107.953 106.056 110.892C107.779 113.78 108.64 117.251 108.64 121.304C108.64 125.307 107.779 128.777 106.056 131.716C104.384 134.655 102.003 136.909 98.912 138.48C95.8213 140.051 92.1986 140.836 88.044 140.836ZM88.044 130.88C90.0706 130.88 91.7426 130.12 93.06 128.6C94.3773 127.08 95.036 124.648 95.036 121.304C95.036 117.909 94.3773 115.477 93.06 114.008C91.7426 112.488 90.0706 111.728 88.044 111.728C85.9666 111.728 84.2693 112.488 82.952 114.008C81.6346 115.477 80.976 117.909 80.976 121.304C80.976 124.648 81.6346 127.08 82.952 128.6C84.2693 130.12 85.9666 130.88 88.044 130.88ZM124.894 140L108.478 102.608H122.69L130.822 123.812L139.41 102.608H152.71L135.99 140H124.894ZM154.685 96.148V83.912H168.897V96.148H154.685ZM155.065 140V102.608H168.593V140H155.065ZM196.808 140.836C192.248 140.836 188.296 140.051 184.952 138.48C181.659 136.859 179.126 134.579 177.352 131.64C175.579 128.701 174.692 125.231 174.692 121.228C174.692 117.428 175.528 114.059 177.2 111.12C178.923 108.181 181.254 105.901 184.192 104.28C187.182 102.608 190.576 101.772 194.376 101.772C198.126 101.772 201.368 102.557 204.104 104.128C206.891 105.699 209.019 107.953 210.488 110.892C212.008 113.78 212.768 117.175 212.768 121.076V124.04H187.612C188.068 126.472 189.082 128.22 190.652 129.284C192.223 130.348 194.402 130.88 197.188 130.88C199.114 130.88 201.115 130.601 203.192 130.044C205.32 129.436 207.195 128.575 208.816 127.46L212.16 136.352C210.235 137.72 207.879 138.809 205.092 139.62C202.306 140.431 199.544 140.836 196.808 140.836ZM194.984 110.512C192.958 110.512 191.286 111.12 189.968 112.336C188.702 113.552 187.891 115.325 187.536 117.656H201.672C201.52 115.275 200.862 113.501 199.696 112.336C198.582 111.12 197.011 110.512 194.984 110.512ZM241.407 140V86.42H253.035L270.135 117.124L287.235 86.42H298.559V140H285.943V110.892L273.707 132.096H266.107L254.023 111.196V140H241.407ZM320.507 140.836C317.619 140.836 315.06 140.304 312.831 139.24C310.652 138.176 308.929 136.732 307.663 134.908C306.447 133.033 305.839 130.905 305.839 128.524C305.839 125.839 306.548 123.711 307.967 122.14C309.385 120.519 311.665 119.379 314.807 118.72C317.948 118.011 322.128 117.656 327.347 117.656H330.235V116.592C330.235 114.768 329.753 113.476 328.791 112.716C327.879 111.956 326.283 111.576 324.003 111.576C322.077 111.576 319.949 111.88 317.619 112.488C315.288 113.096 313.008 114.033 310.779 115.3L307.359 106.408C308.625 105.496 310.247 104.685 312.223 103.976C314.199 103.267 316.276 102.735 318.455 102.38C320.633 101.975 322.685 101.772 324.611 101.772C330.843 101.772 335.453 103.115 338.443 105.8C341.483 108.485 343.003 112.716 343.003 118.492V140H330.387V134.68C329.728 136.605 328.537 138.125 326.815 139.24C325.092 140.304 322.989 140.836 320.507 140.836ZM323.547 132.02C325.421 132.02 326.992 131.412 328.259 130.196C329.576 128.98 330.235 127.384 330.235 125.408V124.04H327.347C324.357 124.04 322.153 124.369 320.735 125.028C319.367 125.636 318.683 126.624 318.683 127.992C318.683 129.157 319.088 130.12 319.899 130.88C320.76 131.64 321.976 132.02 323.547 132.02ZM369.25 154.516C365.501 154.516 361.979 154.161 358.686 153.452C355.443 152.743 352.657 151.577 350.326 149.956L353.822 140.836C355.747 142.001 358.027 142.913 360.662 143.572C363.347 144.231 365.779 144.56 367.958 144.56C371.049 144.56 373.354 143.901 374.874 142.584C376.445 141.317 377.23 139.316 377.23 136.58V133.084C376.166 134.908 374.57 136.352 372.442 137.416C370.314 138.48 368.034 139.012 365.602 139.012C362.258 139.012 359.345 138.252 356.862 136.732C354.379 135.161 352.429 132.983 351.01 130.196C349.642 127.409 348.958 124.141 348.958 120.392C348.958 116.643 349.642 113.375 351.01 110.588C352.429 107.801 354.379 105.648 356.862 104.128C359.345 102.557 362.258 101.772 365.602 101.772C368.135 101.772 370.441 102.329 372.518 103.444C374.646 104.508 376.191 105.927 377.154 107.7V102.608H390.378V134.984C390.378 141.52 388.554 146.409 384.906 149.652C381.258 152.895 376.039 154.516 369.25 154.516ZM369.782 129.056C372.011 129.056 373.785 128.296 375.102 126.776C376.419 125.256 377.078 123.128 377.078 120.392C377.078 117.656 376.419 115.528 375.102 114.008C373.785 112.488 372.011 111.728 369.782 111.728C367.603 111.728 365.855 112.488 364.538 114.008C363.221 115.528 362.562 117.656 362.562 120.392C362.562 123.128 363.221 125.256 364.538 126.776C365.855 128.296 367.603 129.056 369.782 129.056ZM397.9 96.148V83.912H412.112V96.148H397.9ZM398.28 140V102.608H411.808V140H398.28ZM438.731 140.836C434.526 140.836 430.852 140.051 427.711 138.48C424.62 136.909 422.214 134.655 420.491 131.716C418.768 128.777 417.907 125.281 417.907 121.228C417.907 117.175 418.768 113.704 420.491 110.816C422.214 107.877 424.62 105.648 427.711 104.128C430.852 102.557 434.526 101.772 438.731 101.772C441.214 101.772 443.671 102.127 446.103 102.836C448.586 103.495 450.612 104.432 452.183 105.648L448.611 114.92C447.446 114.008 446.078 113.299 444.507 112.792C442.987 112.235 441.543 111.956 440.175 111.956C437.49 111.956 435.412 112.767 433.943 114.388C432.474 116.009 431.739 118.289 431.739 121.228C431.739 124.217 432.474 126.548 433.943 128.22C435.412 129.841 437.49 130.652 440.175 130.652C441.543 130.652 442.987 130.399 444.507 129.892C446.078 129.335 447.446 128.6 448.611 127.688L452.183 136.96C450.612 138.176 448.586 139.139 446.103 139.848C443.62 140.507 441.163 140.836 438.731 140.836ZM462.761 112.108L457.669 108.004C460.405 105.268 462.103 102.684 462.761 100.252H456.377V86.42H470.437V95.16C470.437 98.352 469.855 101.265 468.689 103.9C467.575 106.535 465.599 109.271 462.761 112.108ZM480.241 112.108L475.149 108.004C477.885 105.268 479.583 102.684 480.241 100.252H473.857V86.42H487.917V95.16C487.917 98.352 487.335 101.265 486.169 103.9C485.055 106.535 483.079 109.271 480.241 112.108Z" fill="#F03A47"/>
</svg>
