<svg width="34" height="10" viewBox="0 0 34 10" fill="none" xmlns="http://www.w3.org/2000/svg">
<path d="M0.324 9L4.008 0.539999H4.668L8.34 9H7.572L6.6 6.744H2.064L1.104 9H0.324ZM4.32 1.452L2.34 6.108H6.324L4.344 1.452H4.32ZM11.9376 9.096C11.3696 9.096 10.8816 8.972 10.4736 8.724C10.0656 8.468 9.74956 8.112 9.52556 7.656C9.30956 7.192 9.20156 6.656 9.20156 6.048C9.20156 5.128 9.44156 4.404 9.92156 3.876C10.4096 3.34 11.0816 3.072 11.9376 3.072C12.2896 3.072 12.6376 3.14 12.9816 3.276C13.3256 3.412 13.6136 3.6 13.8456 3.84L13.5576 4.392C13.3096 4.152 13.0456 3.98 12.7656 3.876C12.4856 3.764 12.2176 3.708 11.9616 3.708C11.3136 3.708 10.8136 3.912 10.4616 4.32C10.1176 4.728 9.94556 5.308 9.94556 6.06C9.94556 6.812 10.1176 7.404 10.4616 7.836C10.8136 8.26 11.3136 8.472 11.9616 8.472C12.2176 8.472 12.4856 8.42 12.7656 8.316C13.0456 8.204 13.3096 8.028 13.5576 7.788L13.8456 8.34C13.6136 8.572 13.3216 8.756 12.9696 8.892C12.6256 9.028 12.2816 9.096 11.9376 9.096ZM17.2654 9.096C16.6174 9.096 16.1294 8.92 15.8014 8.568C15.4814 8.216 15.3214 7.712 15.3214 7.056V3.768H14.1694V3.18H15.3214V1.38H16.0534V3.18H17.9374V3.768H16.0534V6.96C16.0534 7.448 16.1534 7.82 16.3534 8.076C16.5534 8.332 16.8854 8.46 17.3494 8.46C17.4854 8.46 17.6174 8.444 17.7454 8.412C17.8734 8.38 17.9854 8.344 18.0814 8.304L18.2254 8.88C18.1374 8.936 17.9974 8.984 17.8054 9.024C17.6134 9.072 17.4334 9.096 17.2654 9.096ZM18.9689 1.644V0.719999H19.9529V1.644H18.9689ZM19.0889 9V3.18H19.8209V9H19.0889ZM24.0651 9.096C23.5211 9.096 23.0491 8.976 22.6491 8.736C22.2491 8.488 21.9371 8.14 21.7131 7.692C21.4971 7.236 21.3891 6.7 21.3891 6.084C21.3891 5.476 21.4971 4.948 21.7131 4.5C21.9371 4.044 22.2491 3.692 22.6491 3.444C23.0491 3.196 23.5211 3.072 24.0651 3.072C24.6171 3.072 25.0931 3.196 25.4931 3.444C25.8931 3.692 26.2011 4.044 26.4171 4.5C26.6411 4.948 26.7531 5.476 26.7531 6.084C26.7531 6.7 26.6411 7.236 26.4171 7.692C26.2011 8.14 25.8931 8.488 25.4931 8.736C25.0931 8.976 24.6171 9.096 24.0651 9.096ZM24.0651 8.484C24.6571 8.484 25.1291 8.276 25.4811 7.86C25.8331 7.436 26.0091 6.844 26.0091 6.084C26.0091 5.324 25.8331 4.736 25.4811 4.32C25.1291 3.904 24.6571 3.696 24.0651 3.696C23.4731 3.696 23.0011 3.904 22.6491 4.32C22.3051 4.736 22.1331 5.324 22.1331 6.084C22.1331 6.844 22.3051 7.436 22.6491 7.86C23.0011 8.276 23.4731 8.484 24.0651 8.484ZM28.3116 9V3.18H29.0316V4.224C29.2236 3.84 29.4996 3.552 29.8596 3.36C30.2196 3.168 30.6196 3.072 31.0596 3.072C32.4436 3.072 33.1356 3.824 33.1356 5.328V9H32.4036V5.388C32.4036 4.812 32.2876 4.388 32.0556 4.116C31.8236 3.844 31.4556 3.708 30.9516 3.708C30.3756 3.708 29.9116 3.888 29.5596 4.248C29.2156 4.6 29.0436 5.076 29.0436 5.676V9H28.3116Z" fill="white"/>
</svg>
