<svg width="56" height="10" viewBox="0 0 56 10" fill="none" xmlns="http://www.w3.org/2000/svg">
<path d="M0.324 9L4.008 0.539999H4.668L8.34 9H7.572L6.6 6.744H2.064L1.104 9H0.324ZM4.32 1.452L2.34 6.108H6.324L4.344 1.452H4.32ZM11.7816 9.096C11.2536 9.096 10.7976 8.976 10.4136 8.736C10.0296 8.488 9.72956 8.14 9.51356 7.692C9.30556 7.236 9.20156 6.7 9.20156 6.084C9.20156 5.164 9.43356 4.432 9.89756 3.888C10.3616 3.344 10.9896 3.072 11.7816 3.072C12.2456 3.072 12.6536 3.18 13.0056 3.396C13.3656 3.604 13.6336 3.892 13.8096 4.26V0.539999H14.5416V9H13.8216V7.896C13.6456 8.272 13.3776 8.568 13.0176 8.784C12.6656 8.992 12.2536 9.096 11.7816 9.096ZM11.8776 8.484C12.4696 8.484 12.9416 8.276 13.2936 7.86C13.6456 7.436 13.8216 6.844 13.8216 6.084C13.8216 5.324 13.6456 4.736 13.2936 4.32C12.9416 3.904 12.4696 3.696 11.8776 3.696C11.2856 3.696 10.8136 3.904 10.4616 4.32C10.1176 4.736 9.94556 5.324 9.94556 6.084C9.94556 6.844 10.1176 7.436 10.4616 7.86C10.8136 8.276 11.2856 8.484 11.8776 8.484ZM18.1919 9L15.6959 3.18H16.5119L18.5639 8.196L20.6519 3.18H21.4199L18.9239 9H18.1919ZM25.0311 9.096C24.1351 9.096 23.4271 8.832 22.9071 8.304C22.3951 7.768 22.1391 7.036 22.1391 6.108C22.1391 5.508 22.2551 4.98 22.4871 4.524C22.7191 4.068 23.0391 3.712 23.4471 3.456C23.8631 3.2 24.3391 3.072 24.8751 3.072C25.6511 3.072 26.2551 3.324 26.6871 3.828C27.1191 4.332 27.3351 5.024 27.3351 5.904V6.24H22.8591C22.8831 6.96 23.0791 7.516 23.4471 7.908C23.8231 8.292 24.3431 8.484 25.0071 8.484C25.3671 8.484 25.7031 8.428 26.0151 8.316C26.3351 8.204 26.6471 8.016 26.9511 7.752L27.2391 8.304C26.9831 8.552 26.6551 8.748 26.2551 8.892C25.8551 9.028 25.4471 9.096 25.0311 9.096ZM24.8871 3.66C24.2791 3.66 23.8031 3.852 23.4591 4.236C23.1231 4.612 22.9271 5.1 22.8711 5.7H26.6751C26.6591 5.06 26.4991 4.56 26.1951 4.2C25.8911 3.84 25.4551 3.66 24.8871 3.66ZM28.8272 9V3.18H29.5472V4.224C29.7392 3.84 30.0152 3.552 30.3752 3.36C30.7352 3.168 31.1352 3.072 31.5752 3.072C32.9592 3.072 33.6512 3.824 33.6512 5.328V9H32.9192V5.388C32.9192 4.812 32.8032 4.388 32.5712 4.116C32.3392 3.844 31.9712 3.708 31.4672 3.708C30.8912 3.708 30.4272 3.888 30.0752 4.248C29.7312 4.6 29.5592 5.076 29.5592 5.676V9H28.8272ZM37.738 9.096C37.09 9.096 36.602 8.92 36.274 8.568C35.954 8.216 35.794 7.712 35.794 7.056V3.768H34.642V3.18H35.794V1.38H36.526V3.18H38.41V3.768H36.526V6.96C36.526 7.448 36.626 7.82 36.826 8.076C37.026 8.332 37.358 8.46 37.822 8.46C37.958 8.46 38.09 8.444 38.218 8.412C38.346 8.38 38.458 8.344 38.554 8.304L38.698 8.88C38.61 8.936 38.47 8.984 38.278 9.024C38.086 9.072 37.906 9.096 37.738 9.096ZM41.6136 9.096C40.2296 9.096 39.5376 8.344 39.5376 6.84V3.18H40.2696V6.804C40.2696 7.372 40.3856 7.792 40.6176 8.064C40.8496 8.336 41.2136 8.472 41.7096 8.472C42.2456 8.472 42.6816 8.292 43.0176 7.932C43.3616 7.572 43.5336 7.092 43.5336 6.492V3.18H44.2656V9H43.5576V7.968C43.3656 8.336 43.0976 8.616 42.7536 8.808C42.4176 9 42.0376 9.096 41.6136 9.096ZM46.1944 9V3.18H46.9144V4.236C47.0824 3.868 47.3264 3.588 47.6464 3.396C47.9664 3.204 48.3744 3.092 48.8704 3.06L49.1704 3.036L49.2424 3.672L48.7264 3.732C48.1584 3.78 47.7184 3.968 47.4064 4.296C47.0944 4.616 46.9384 5.048 46.9384 5.592V9H46.1944ZM52.7576 9.096C51.8616 9.096 51.1536 8.832 50.6336 8.304C50.1216 7.768 49.8656 7.036 49.8656 6.108C49.8656 5.508 49.9816 4.98 50.2136 4.524C50.4456 4.068 50.7656 3.712 51.1736 3.456C51.5896 3.2 52.0656 3.072 52.6016 3.072C53.3776 3.072 53.9816 3.324 54.4136 3.828C54.8456 4.332 55.0616 5.024 55.0616 5.904V6.24H50.5856C50.6096 6.96 50.8056 7.516 51.1736 7.908C51.5496 8.292 52.0696 8.484 52.7336 8.484C53.0936 8.484 53.4296 8.428 53.7416 8.316C54.0616 8.204 54.3736 8.016 54.6776 7.752L54.9656 8.304C54.7096 8.552 54.3816 8.748 53.9816 8.892C53.5816 9.028 53.1736 9.096 52.7576 9.096ZM52.6136 3.66C52.0056 3.66 51.5296 3.852 51.1856 4.236C50.8496 4.612 50.6536 5.1 50.5976 5.7H54.4016C54.3856 5.06 54.2256 4.56 53.9216 4.2C53.6176 3.84 53.1816 3.66 52.6136 3.66Z" fill="white"/>
</svg>
