<svg width="179" height="44" viewBox="0 0 179 44" fill="none" xmlns="http://www.w3.org/2000/svg">
<rect width="99" height="42" fill="#F03A47"/>
<path d="M13.328 30.12V27.048H17.432C18.168 27.048 18.72 26.856 19.088 26.472C19.456 26.088 19.64 25.544 19.64 24.84C19.64 24.136 19.456 23.6 19.088 23.232C18.72 22.848 18.168 22.656 17.432 22.656H13.328V20.28H17.24C18.456 20.28 19.536 20.432 20.48 20.736C21.424 21.024 22.168 21.496 22.712 22.152C23.256 22.808 23.528 23.696 23.528 24.816V25.152C23.528 26.192 23.288 27.088 22.808 27.84C22.328 28.576 21.624 29.144 20.696 29.544C19.768 29.928 18.616 30.12 17.24 30.12H13.328ZM9.968 30.12V12.336H13.808V30.12H9.968ZM13.328 22.032V19.68H16.784C17.536 19.68 18.08 19.488 18.416 19.104C18.752 18.72 18.92 18.208 18.92 17.568C18.92 16.896 18.752 16.368 18.416 15.984C18.08 15.6 17.536 15.408 16.784 15.408H13.328V12.336H16.544C18.56 12.336 20.104 12.76 21.176 13.608C22.264 14.456 22.808 15.664 22.808 17.232V17.592C22.808 18.68 22.528 19.552 21.968 20.208C21.424 20.864 20.68 21.336 19.736 21.624C18.808 21.896 17.744 22.032 16.544 22.032H13.328ZM26.6332 30V12.48H30.5692V30H26.6332ZM34.5539 30V12.48H41.0099L47.6099 26.808H48.4259L47.9459 27.24V12.48H51.6419V30H45.1379L38.5379 15.672H37.7219L38.2019 15.24V30H34.5539ZM63.8814 30.456C62.3134 30.456 60.9454 30.2 59.7774 29.688C58.6094 29.16 57.6414 28.456 56.8734 27.576C56.1214 26.696 55.5614 25.72 55.1934 24.648C54.8254 23.576 54.6414 22.504 54.6414 21.432V20.904C54.6414 19.8 54.8254 18.72 55.1934 17.664C55.5614 16.608 56.1134 15.648 56.8494 14.784C57.6014 13.92 58.5294 13.232 59.6334 12.72C60.7534 12.208 62.0414 11.952 63.4974 11.952C65.0814 11.952 66.4814 12.248 67.6974 12.84C68.9134 13.416 69.8894 14.224 70.6254 15.264C71.3614 16.288 71.7854 17.48 71.8974 18.84H67.9614C67.8654 18.2 67.6094 17.64 67.1934 17.16C66.7934 16.68 66.2734 16.304 65.6334 16.032C65.0094 15.76 64.2974 15.624 63.4974 15.624C62.7294 15.624 62.0414 15.76 61.4334 16.032C60.8414 16.304 60.3294 16.688 59.8974 17.184C59.4814 17.68 59.1614 18.272 58.9374 18.96C58.7294 19.632 58.6254 20.376 58.6254 21.192C58.6254 22.04 58.7374 22.816 58.9614 23.52C59.2014 24.208 59.5454 24.808 59.9934 25.32C60.4414 25.816 60.9934 26.2 61.6494 26.472C62.3214 26.744 63.0654 26.88 63.8814 26.88C64.9694 26.88 65.9134 26.656 66.7134 26.208C67.5134 25.76 68.0894 25.168 68.4414 24.432L67.9614 27.12V22.944H71.5854V26.688C70.8334 27.904 69.7934 28.84 68.4654 29.496C67.1534 30.136 65.6254 30.456 63.8814 30.456ZM63.3774 23.712V20.88H73.0254V23.712H63.3774ZM75.5696 30V12.48H79.4096V30H75.5696ZM78.9296 30V26.736H86.5856V30H78.9296ZM78.9296 22.728V19.464H86.0336V22.728H78.9296ZM78.9296 15.744V12.48H86.4176V15.744H78.9296Z" fill="white"/>
<path d="M111.328 30.12V27.048H115.432C116.168 27.048 116.72 26.856 117.088 26.472C117.456 26.088 117.64 25.544 117.64 24.84C117.64 24.136 117.456 23.6 117.088 23.232C116.72 22.848 116.168 22.656 115.432 22.656H111.328V20.28H115.24C116.456 20.28 117.536 20.432 118.48 20.736C119.424 21.024 120.168 21.496 120.712 22.152C121.256 22.808 121.528 23.696 121.528 24.816V25.152C121.528 26.192 121.288 27.088 120.808 27.84C120.328 28.576 119.624 29.144 118.696 29.544C117.768 29.928 116.616 30.12 115.24 30.12H111.328ZM107.968 30.12V12.336H111.808V30.12H107.968ZM111.328 22.032V19.68H114.784C115.536 19.68 116.08 19.488 116.416 19.104C116.752 18.72 116.92 18.208 116.92 17.568C116.92 16.896 116.752 16.368 116.416 15.984C116.08 15.6 115.536 15.408 114.784 15.408H111.328V12.336H114.544C116.56 12.336 118.104 12.76 119.176 13.608C120.264 14.456 120.808 15.664 120.808 17.232V17.592C120.808 18.68 120.528 19.552 119.968 20.208C119.424 20.864 118.68 21.336 117.736 21.624C116.808 21.896 115.744 22.032 114.544 22.032H111.328ZM132.891 30.456C131.307 30.456 129.923 30.184 128.739 29.64C127.571 29.08 126.603 28.352 125.835 27.456C125.067 26.544 124.491 25.56 124.107 24.504C123.739 23.448 123.555 22.432 123.555 21.456V20.928C123.555 19.84 123.747 18.768 124.131 17.712C124.531 16.64 125.123 15.672 125.907 14.808C126.691 13.944 127.667 13.256 128.835 12.744C130.003 12.216 131.355 11.952 132.891 11.952C134.427 11.952 135.779 12.216 136.947 12.744C138.115 13.256 139.091 13.944 139.875 14.808C140.659 15.672 141.251 16.64 141.651 17.712C142.051 18.768 142.251 19.84 142.251 20.928V21.456C142.251 22.432 142.059 23.448 141.675 24.504C141.291 25.56 140.715 26.544 139.947 27.456C139.179 28.352 138.203 29.08 137.019 29.64C135.851 30.184 134.475 30.456 132.891 30.456ZM132.891 26.784C133.723 26.784 134.467 26.64 135.123 26.352C135.795 26.064 136.363 25.664 136.827 25.152C137.307 24.64 137.667 24.048 137.907 23.376C138.147 22.704 138.267 21.984 138.267 21.216C138.267 20.4 138.139 19.656 137.883 18.984C137.643 18.296 137.283 17.704 136.803 17.208C136.339 16.696 135.779 16.304 135.123 16.032C134.467 15.76 133.723 15.624 132.891 15.624C132.059 15.624 131.315 15.76 130.659 16.032C130.003 16.304 129.435 16.696 128.955 17.208C128.491 17.704 128.139 18.296 127.899 18.984C127.659 19.656 127.539 20.4 127.539 21.216C127.539 21.984 127.659 22.704 127.899 23.376C128.139 24.048 128.491 24.64 128.955 25.152C129.435 25.664 130.003 26.064 130.659 26.352C131.315 26.64 132.059 26.784 132.891 26.784ZM142.755 30L148.731 20.664L148.779 21.072L143.259 12.48H147.579L150.987 17.952H151.539L154.899 12.48H159.099L153.555 21.12L153.483 20.736L159.651 30H155.307L151.323 23.808H150.747L146.955 30H142.755Z" fill="#F03A47"/>
</svg>
