<svg width="64" height="49" viewBox="0 0 64 49" fill="none" xmlns="http://www.w3.org/2000/svg">
<path fill-rule="evenodd" clip-rule="evenodd" d="M62.0133 6.96344C62.7633 7.71344 63.1383 8.62415 63.1383 9.69558C63.1383 10.767 62.7633 11.6777 62.0133 12.4277L32.9241 41.5169L27.4598 46.9812C26.7098 47.7312 25.7991 48.1062 24.7277 48.1062C23.6562 48.1062 22.7455 47.7312 21.9955 46.9812L16.5312 41.5169L1.98657 26.9723C1.23657 26.2223 0.861572 25.3116 0.861572 24.2401C0.861572 23.1687 1.23657 22.258 1.98657 21.508L7.45087 16.0437C8.20087 15.2937 9.11158 14.9187 10.183 14.9187C11.2544 14.9187 12.1651 15.2937 12.9151 16.0437L24.7277 27.8964L51.0847 1.49902C51.8347 0.749023 52.7454 0.374023 53.8168 0.374023C54.8883 0.374023 55.799 0.749023 56.549 1.49902L62.0133 6.96344Z" fill="#45C62F"/>
</svg>
