<svg width="145" height="145" viewBox="0 0 145 145" fill="none" xmlns="http://www.w3.org/2000/svg">
<rect x="1.5" y="1.5" width="142" height="142" rx="71" stroke="white" stroke-width="3"/>
<path fill-rule="evenodd" clip-rule="evenodd" d="M104.821 98.0044C104.821 101.687 103.701 104.596 101.461 106.729C99.2202 108.862 96.243 109.928 92.5293 109.928H52.2921C48.5784 109.928 45.6013 108.862 43.3608 106.729C41.1203 104.596 40 101.687 40 98.0044C40 96.3778 40.0537 94.7895 40.1611 93.2395C40.2686 91.6896 40.4834 90.0169 40.8057 88.2214C41.1279 86.4259 41.5346 84.7609 42.0257 83.2263C42.5167 81.6917 43.1766 80.1954 44.0053 78.7376C44.834 77.2797 45.7854 76.0367 46.8597 75.0085C47.9339 73.9803 49.246 73.1593 50.7959 72.5455C52.3458 71.9316 54.0569 71.6247 55.9291 71.6247C56.2054 71.6247 56.8499 71.9546 57.8627 72.6145C58.8756 73.2744 60.0188 74.011 61.2926 74.8243C62.5663 75.6377 64.2236 76.3743 66.2647 77.0341C68.3057 77.694 70.3544 78.024 72.4107 78.024C74.4671 78.024 76.5158 77.694 78.5568 77.0341C80.5978 76.3743 82.2552 75.6377 83.5289 74.8243C84.8026 74.011 85.9459 73.2744 86.9587 72.6145C87.9715 71.9546 88.6161 71.6247 88.8923 71.6247C90.7645 71.6247 92.4756 71.9316 94.0255 72.5455C95.5755 73.1593 96.8876 73.9803 97.9618 75.0085C99.036 76.0367 99.9875 77.2797 100.816 78.7376C101.645 80.1954 102.305 81.6917 102.796 83.2263C103.287 84.7609 103.694 86.4259 104.016 88.2214C104.338 90.0169 104.553 91.6896 104.66 93.2395C104.768 94.7895 104.821 96.3778 104.821 98.0044H104.821ZM84.8864 44.4165C88.3546 47.854 90.0887 52.0127 90.0887 56.8927C90.0887 61.7728 88.3623 65.9392 84.9094 69.392C81.4566 72.8449 77.2902 74.5713 72.4101 74.5713C67.5301 74.5713 63.3637 72.8449 59.9108 69.392C56.458 65.9392 54.7316 61.7728 54.7316 56.8927C54.7316 52.0127 56.458 47.8463 59.9108 44.3934C63.3637 40.9406 67.5301 39.2142 72.4101 39.2142C77.2902 39.2142 81.4489 40.9483 84.8864 44.4165Z" fill="white"/>
</svg>
