<svg width="38" height="45" viewBox="0 0 38 45" fill="none" xmlns="http://www.w3.org/2000/svg">
<path d="M31.77 23.7809C31.7482 20.0924 33.428 17.3124 36.8203 15.2626C34.923 12.5584 32.0526 11.0711 28.269 10.7844C24.6864 10.5032 20.7668 12.8613 19.3316 12.8613C17.8149 12.8613 14.3465 10.8818 11.6175 10.8818C5.98541 10.9683 0 15.3492 0 24.2623C0 26.8962 0.483834 29.6166 1.4515 32.4182C2.74535 36.1068 7.40973 45.1443 12.2753 44.9983C14.8195 44.9388 16.6189 43.2026 19.9296 43.2026C23.1425 43.2026 24.806 44.9983 27.6438 44.9983C32.5528 44.9279 36.7714 36.7125 38 33.0131C31.4166 29.9249 31.77 23.9702 31.77 23.7809ZM26.0564 7.28517C28.8126 4.02929 28.5625 1.06546 28.481 0C26.0455 0.14062 23.2295 1.64958 21.6258 3.50467C19.8589 5.49498 18.8206 7.95582 19.0435 10.7304C21.6747 10.9305 24.0775 9.58376 26.0564 7.28517Z" fill="black"/>
</svg>
